<svg width="44" height="44" viewBox="0 0 44 44" fill="none" xmlns="http://www.w3.org/2000/svg">
<path fill-rule="evenodd" clip-rule="evenodd" d="M27.1389 9.50921C26.3154 9.41819 25.5741 10.0119 25.483 10.8353C25.3921 11.6587 25.9858 12.4 26.8092 12.491C32.3686 13.1056 36.8685 17.6055 37.483 23.1649C37.5741 23.9884 38.3154 24.5821 39.1389 24.4911C39.9622 24.4 40.5559 23.6587 40.4649 22.8353C39.696 15.88 34.0942 10.2781 27.1389 9.50921ZM27.3478 17.0475C26.5456 16.841 25.7278 17.324 25.5213 18.1262C25.3149 18.9285 25.7979 19.7463 26.6001 19.9528C28.1793 20.3592 29.6149 21.7949 30.0213 23.374C30.2278 24.1764 31.0456 24.6592 31.8478 24.4528C32.6502 24.2463 33.1332 23.4285 32.9266 22.6262C32.2477 19.9886 29.9856 17.7264 27.3478 17.0475ZM15.7457 12.1901C14.8299 10.3586 12.389 9.9625 10.9411 11.4104L8.79133 13.5602C7.95738 14.3941 7.44458 15.5595 7.50478 16.8141C8.17014 30.6804 19.2925 41.8027 33.1588 42.468C34.4133 42.5283 35.5788 42.0154 36.4126 41.1814L38.5624 39.0318C40.0104 37.5838 39.6142 35.1429 37.7827 34.2271L31.6111 31.1413C30.4561 30.5638 29.0613 30.7902 28.1482 31.7034L23.1733 36.6783C18.983 34.4377 15.5351 30.9898 13.2946 26.7996L18.2695 21.8246C19.1826 20.9116 19.4089 19.5166 18.8314 18.3617L15.7457 12.1901Z" fill="#3A643C"/>
</svg>
