<svg width="44" height="44" viewBox="0 0 44 44" fill="none" xmlns="http://www.w3.org/2000/svg">
<path d="M7.39391 13.9346C7.05553 15.3455 6.8763 16.8184 6.8763 18.3331C6.8763 28.7115 15.2896 37.1248 25.668 37.1248C27.1827 37.1248 28.6556 36.9455 30.0665 36.6073C27.1383 39.7458 22.9656 41.7082 18.3346 41.7082C9.47507 41.7082 2.29297 34.5261 2.29297 25.6665C2.29297 21.0355 4.25535 16.8628 7.39391 13.9346Z" fill="#3A643C"/>
<path fill-rule="evenodd" clip-rule="evenodd" d="M25.6667 2.29199C16.8071 2.29199 9.625 9.47409 9.625 18.3337C9.625 27.1932 16.8071 34.3753 25.6667 34.3753C34.5262 34.3753 41.7083 27.1932 41.7083 18.3337C41.7083 9.47409 34.5262 2.29199 25.6667 2.29199ZM22.249 12.5391C22.8329 12.1012 23.5323 11.7852 24.2917 11.6119V10.0837H27.0417V11.6136C28.4876 11.9448 29.7636 12.7975 30.3684 14.0808L27.881 15.2531C27.6659 14.7971 26.8921 14.2087 25.6667 14.2087C24.9229 14.2087 24.3025 14.4365 23.899 14.7391C23.4958 15.0414 23.375 15.3541 23.375 15.5837C23.375 15.8132 23.4958 16.1259 23.899 16.4282C24.3025 16.7308 24.9229 16.9587 25.6667 16.9587C26.948 16.9587 28.1607 17.3464 29.0844 18.0391C30.0084 18.732 30.7083 19.7945 30.7083 21.0837C30.7083 22.3729 30.0084 23.4353 29.0844 24.1283C28.5004 24.5661 27.801 24.8821 27.0417 25.0554V26.5837H24.2917V25.0537C22.8457 24.7225 21.5697 23.8698 20.9649 22.5864L23.4524 21.4142C23.6674 21.8702 24.4413 22.4587 25.6667 22.4587C26.4104 22.4587 27.0308 22.2308 27.4344 21.9283C27.8375 21.626 27.9583 21.3132 27.9583 21.0837C27.9583 20.8541 27.8375 20.5414 27.4344 20.239C27.0308 19.9365 26.4104 19.7087 25.6667 19.7087C24.3853 19.7087 23.1726 19.3209 22.249 18.6283C21.325 17.9352 20.625 16.8729 20.625 15.5837C20.625 14.2944 21.325 13.2321 22.249 12.5391Z" fill="#3A643C"/>
</svg>
