<svg width="47" height="36" viewBox="0 0 47 36" fill="none" xmlns="http://www.w3.org/2000/svg">
<path d="M16.2227 30.0705L13.1328 31.6154L19.3125 33.9328H24.7198L27.8097 32.3879L30.1271 30.843L33.9894 26.2081L34.7619 24.6632L35.5343 22.3457L36.3068 20.0283L33.9894 20.8008H30.8995H27.0372L23.1749 20.0283L19.3125 21.5733L16.9951 23.1182L16.2227 25.4356L15.4502 28.5255L16.2227 30.0705Z" fill="#3A643B"/>
<path d="M24.7188 12.3039L21.6289 13.8488L27.8086 16.1662H33.2159L36.3058 14.6213L38.6232 13.0763L42.4855 8.44151L43.258 6.89656L44.0304 4.57914L44.8029 2.26172L42.4855 3.03419H39.3956H35.5333L31.671 2.26172L27.8086 3.80667L25.4912 5.35161L24.7188 7.66903L23.9463 10.7589L24.7188 12.3039Z" fill="#3A643B"/>
<path d="M0.773438 18.4807C2.62736 9.21099 9.27057 6.89357 12.3604 6.12109L11.588 9.21099C11.8455 9.21099 12.8239 9.98346 14.6778 13.0734C16.5318 16.1632 14.4203 19.5106 13.1329 20.7981L10.043 23.888L7.72564 26.2054L5.40824 28.5228L3.8633 31.6127C1.39141 26.6689 0.773438 20.7981 0.773438 18.4807Z" fill="#3A643B"/>
<path d="M14.7537 29.3892C12.7751 30.4997 11.0952 32.0733 9.85811 33.9753C9.79818 34.0725 9.7582 34.1806 9.74051 34.2934C9.72282 34.4062 9.72777 34.5214 9.75507 34.6322C9.78237 34.7431 9.83148 34.8474 9.89953 34.9391C9.96757 35.0308 10.0532 35.108 10.1514 35.1662C10.2496 35.2245 10.3584 35.2626 10.4715 35.2783C10.5846 35.294 10.6997 35.2871 10.8101 35.2579C10.9204 35.2287 11.0239 35.1778 11.1144 35.1081C11.2048 35.0385 11.2806 34.9516 11.3371 34.8524C11.8525 34.0202 12.488 33.2687 13.2231 32.6224C16.0435 34.3422 18.7894 35.2078 21.432 35.2078C22.799 35.208 24.156 34.9753 25.4448 34.5199C33.6882 31.6536 37.6207 20.6413 37.7812 20.1885C37.8554 19.9936 37.8607 19.7793 37.796 19.581C37.7313 19.3828 37.6006 19.2128 37.4257 19.0993C37.2644 18.9983 37.0723 18.9583 36.884 18.9867C36.6958 19.0151 36.524 19.1099 36.3996 19.2541C36.1245 19.4088 33.8315 20.4866 24.9977 19.6955C21.6327 19.3916 19.0187 20.1139 17.2358 21.8337C15.453 23.5535 14.6677 26.0701 14.7537 29.3892ZM24.8372 21.4439C30.4779 21.9484 33.6595 21.7248 35.4366 21.3694C34.0206 24.4764 30.4779 30.9542 24.8601 32.909C21.7015 34.0555 18.2734 33.5625 14.6677 31.516C18.2333 29.0166 23.4442 27.3312 27.7607 26.8612C27.8737 26.8491 27.9831 26.815 28.0828 26.7606C28.1825 26.7063 28.2706 26.6328 28.3419 26.5445C28.4132 26.4561 28.4665 26.3545 28.4985 26.2456C28.5306 26.1367 28.5409 26.0225 28.5289 25.9096C28.5168 25.7966 28.4827 25.6872 28.4283 25.5875C28.374 25.4878 28.3006 25.3997 28.2122 25.3284C28.1238 25.2571 28.0223 25.2038 27.9133 25.1718C27.8044 25.1397 27.6902 25.1294 27.5773 25.1414C23.715 25.607 19.959 26.7214 16.4677 28.4376C16.5479 26.0758 17.1957 24.2758 18.4225 23.0891C19.8327 21.7305 21.9881 21.1687 24.8372 21.4439ZM18.6976 16.8922C18.8909 16.9999 19.1184 17.0284 19.3322 16.9718C19.5461 16.9151 19.7296 16.7777 19.8441 16.5884C20.3577 15.7549 20.9935 15.0032 21.7301 14.3584C24.5448 16.0782 27.2964 16.9438 29.9391 16.9438C31.306 16.944 32.663 16.7114 33.9518 16.2559C42.1952 13.3552 46.122 2.37739 46.2882 1.92452C46.3625 1.7297 46.3677 1.51531 46.303 1.3171C46.2383 1.1189 46.1077 0.948852 45.9328 0.835332C45.7715 0.734317 45.5793 0.694391 45.3911 0.722782C45.2029 0.751172 45.031 0.846003 44.9067 0.990112C44.6258 1.14489 42.3385 2.22261 33.5047 1.43152C30.134 1.12769 27.5257 1.85 25.7372 3.56976C23.9486 5.28953 23.1862 7.77747 23.2894 11.1253C21.3108 12.2357 19.6309 13.8094 18.3938 15.7113C18.3359 15.8087 18.2978 15.9166 18.2818 16.0288C18.2657 16.141 18.272 16.2552 18.3002 16.365C18.3284 16.4747 18.3781 16.5778 18.4463 16.6683C18.5145 16.7588 18.5999 16.8349 18.6976 16.8922ZM26.9582 4.81946C28.3684 3.46085 30.5238 2.89906 33.3729 3.15129C39.0137 3.66149 42.1952 3.43792 43.978 3.0825C42.5563 6.20674 39.0251 12.6788 33.4015 14.6565C30.2429 15.7457 26.8149 15.2699 23.1862 13.2234C26.7518 10.724 31.9627 9.03863 36.2792 8.56856C36.5073 8.54423 36.7164 8.43031 36.8604 8.25185C37.0045 8.07339 37.0717 7.84501 37.0474 7.61695C37.0231 7.3889 36.9092 7.17985 36.7307 7.03579C36.5522 6.89173 36.3239 6.82447 36.0958 6.84879C32.2342 7.31082 28.4782 8.42134 24.9862 10.1335C25.0837 7.7832 25.7314 5.96598 26.9582 4.81946ZM3.6498 32.3358C3.71969 32.3375 3.7894 32.3278 3.85617 32.3071C4.04211 32.2662 4.20708 32.1597 4.3208 32.007C4.43453 31.8543 4.48937 31.6657 4.47528 31.4759C4.56127 31.1663 5.42114 28.7816 12.2256 23.1006C14.8225 20.9337 16.1581 18.5776 16.1983 16.0954C16.2384 13.6132 15.0518 11.2973 12.6212 9.0157C13.2288 6.82298 13.2956 4.51563 12.8161 2.2914C12.7948 2.17544 12.75 2.06508 12.6843 1.96718C12.6186 1.86929 12.5335 1.78595 12.4342 1.72234C12.335 1.65873 12.2237 1.61621 12.1073 1.59742C11.9909 1.57864 11.8719 1.58398 11.7577 1.61313C11.6434 1.64228 11.5364 1.69461 11.4433 1.76687C11.3501 1.83912 11.2728 1.92976 11.2162 2.03316C11.1595 2.13655 11.1247 2.25049 11.114 2.36789C11.1032 2.48529 11.1167 2.60365 11.1537 2.71561C11.3792 3.66686 11.4604 4.64663 11.3944 5.62202C6.56191 6.76853 3.174 9.21634 1.40265 12.8852C-2.36361 20.7617 2.62368 31.3039 2.83578 31.7625C2.91043 31.9168 3.0256 32.0479 3.16898 32.1418C3.31235 32.2357 3.47854 32.2889 3.6498 32.2956V32.3358ZM2.96763 13.6247C4.41795 10.6036 7.18102 8.51697 11.1766 7.41632C10.4256 11.7043 7.93198 16.5884 5.20904 19.9592C5.13822 20.0472 5.08544 20.1484 5.05374 20.2568C5.02203 20.3653 5.01201 20.4789 5.02426 20.5913C5.0365 20.7036 5.07077 20.8124 5.1251 20.9115C5.17943 21.0106 5.25276 21.098 5.34089 21.1687C5.49415 21.2905 5.68397 21.3572 5.87974 21.3579C6.01037 21.3597 6.13969 21.3318 6.25789 21.2761C6.37609 21.2205 6.48006 21.1387 6.56191 21.0369C8.96289 17.979 10.8329 14.5393 12.0938 10.8616C13.7104 12.5814 14.5244 14.3011 14.49 16.0209C14.4556 17.9814 13.3435 19.9018 11.1365 21.7535C6.79121 25.3822 4.69311 27.7898 3.68419 29.2975C2.4689 26.0701 0.393731 18.9904 2.96763 13.6247Z" fill="#9DB29D"/>
</svg>
