<svg width="84" height="84" viewBox="0 0 84 84" fill="none" xmlns="http://www.w3.org/2000/svg">
<circle cx="42" cy="42" r="42" fill="#DBDCC4"/>
<path fill-rule="evenodd" clip-rule="evenodd" d="M45.1389 27.5092C44.3154 27.4182 43.5741 28.0119 43.483 28.8353C43.3921 29.6587 43.9858 30.4 44.8092 30.491C50.3686 31.1056 54.8685 35.6055 55.483 41.1649C55.5741 41.9884 56.3154 42.5821 57.1389 42.4911C57.9622 42.4 58.5559 41.6587 58.4649 40.8353C57.696 33.88 52.0942 28.2781 45.1389 27.5092ZM45.3478 35.0475C44.5456 34.841 43.7278 35.324 43.5213 36.1262C43.3149 36.9285 43.7979 37.7463 44.6001 37.9528C46.1793 38.3592 47.6149 39.7949 48.0213 41.374C48.2278 42.1764 49.0456 42.6592 49.8478 42.4528C50.6502 42.2463 51.1332 41.4285 50.9266 40.6262C50.2477 37.9886 47.9856 35.7264 45.3478 35.0475ZM33.7457 30.1901C32.8299 28.3586 30.389 27.9625 28.9411 29.4104L26.7913 31.5602C25.9574 32.3941 25.4446 33.5595 25.5048 34.8141C26.1701 48.6804 37.2925 59.8027 51.1588 60.468C52.4133 60.5283 53.5788 60.0154 54.4126 59.1814L56.5624 57.0318C58.0104 55.5838 57.6142 53.1429 55.7827 52.2271L49.6111 49.1413C48.4561 48.5638 47.0613 48.7902 46.1482 49.7034L41.1733 54.6783C36.983 52.4377 33.5351 48.9898 31.2946 44.7996L36.2695 39.8246C37.1826 38.9116 37.4089 37.5166 36.8314 36.3617L33.7457 30.1901Z" fill="#3A643C"/>
</svg>
