<svg width="84" height="84" viewBox="0 0 84 84" fill="none" xmlns="http://www.w3.org/2000/svg">
  <!-- Background Circle -->
  <circle cx="42" cy="42" r="42" fill="#DBDCC4"/>

  <!-- Foreground Icon (scaled & centered) -->
  <g transform="translate(20,20) scale(1)">
    <g clip-path="url(#clip0)">
      <path d="M39.7746 31.0637C40.632 29.4673 41.3416 27.8117 41.8146 26.1266C42.9677 22.0764 42.3172 18.2035 40.5137 14.9515C38.4441 11.2561 35.2806 8.8023 30.6683 8.77273H26.8838L24.4299 13.6507L20.5567 1.70703L17.2454 8.77273H13.6679C8.49386 9.09793 5.89206 11.2561 3.82245 14.9515C2.01893 18.2035 1.36848 22.0764 2.52155 26.1266C3.58592 29.8811 5.7738 33.4583 8.1095 36.3851C9.23301 37.8042 10.5043 39.0754 11.8348 40.258C12.1305 40.524 13.047 41.204 13.934 41.8248C15.2053 42.7413 16.6836 43.2143 18.1915 43.2143H18.7237C20.6159 43.2143 22.1533 41.5292 22.1533 39.4302V35.3504" fill="#3A643B"/>
      <path d="M39.7746 31.0637C40.632 29.4673 41.3416 27.8117 41.8146 26.1266C42.9677 22.0764 42.3172 18.2035 40.5137 14.9515C38.4441 11.2561 35.2806 8.8023 30.6683 8.77273H26.8838L24.4299 13.6507L20.5567 1.70703L17.2454 8.77273H13.6679C8.49386 9.09793 5.89206 11.2561 3.82245 14.9515C2.01893 18.2035 1.36848 22.0764 2.52155 26.1266C3.58592 29.8811 5.7738 33.4583 8.1095 36.3851C9.23301 37.8042 10.5043 39.0754 11.8348 40.258C12.1305 40.524 13.047 41.204 13.934 41.8248C15.2053 42.7413 16.6836 43.2143 18.1915 43.2143H18.7237C20.6159 43.2143 22.1533 41.5292 22.1533 39.4302V35.3504" stroke="#9DB29D" stroke-width="2.7" stroke-linecap="round" stroke-linejoin="round"/>
      <path d="M13.6726 23.9932C15.2565 23.9932 16.5405 22.7093 16.5405 21.1255C16.5405 19.5417 15.2565 18.2578 13.6726 18.2578C12.0887 18.2578 10.8047 19.5417 10.8047 21.1255C10.8047 22.7093 12.0887 23.9932 13.6726 23.9932Z" stroke="#9DB29D" stroke-width="2.7" stroke-linecap="round" stroke-linejoin="round"/>
      <path d="M30.6374 23.9932C32.2213 23.9932 33.5053 22.7093 33.5053 21.1255C33.5053 19.5417 32.2213 18.2578 30.6374 18.2578C29.0535 18.2578 27.7695 19.5417 27.7695 21.1255C27.7695 22.7093 29.0535 23.9932 30.6374 23.9932Z" stroke="#9DB29D" stroke-width="2.7" stroke-linecap="round" stroke-linejoin="round"/>
      <path d="M37.3613 38.3842C39.6147 38.3842 41.4414 36.5576 41.4414 34.3044C41.4414 32.0512 39.6147 30.2246 37.3613 30.2246C35.108 30.2246 33.2812 32.0512 33.2812 34.3044C33.2812 36.5576 35.108 38.3842 37.3613 38.3842Z" fill="#3A643B" stroke="#9DB29D" stroke-width="2.7" stroke-linecap="round" stroke-linejoin="round"/>
      <path d="M13.668 24.0234C14.2593 29.2562 16.8907 31.9169 22.1534 34.5185C27.2978 32.3308 30.1362 29.8179 30.6388 24.0234" stroke="#9DB29D" stroke-width="2.7" stroke-linecap="round" stroke-linejoin="round"/>
    </g>
  </g>

  <defs>
    <clipPath id="clip0">
      <rect width="43.4323" height="44.4341" fill="white" transform="translate(0.45 0.22)"/>
    </clipPath>
  </defs>
</svg>