<svg width="43" height="45" viewBox="0 0 43 45" fill="none" xmlns="http://www.w3.org/2000/svg">
<path fill-rule="evenodd" clip-rule="evenodd" d="M33.933 10.4595C33.8987 10.0228 33.8409 9.62484 33.7432 9.2504C33.0955 6.76816 31.2078 4.82932 28.7909 4.1642C27.8949 3.91767 26.8607 3.91826 25.4681 3.91903L7.71769 3.9191C4.81662 3.9191 2.46484 6.33441 2.46484 9.31385V23.8314C2.46483 25.8187 2.46479 27.5725 2.52537 29.1085C2.54515 29.6104 2.55505 29.8612 2.67538 30.0067C2.70237 30.0394 2.72019 30.0569 2.75294 30.0834C2.899 30.2013 3.20219 30.2013 3.80859 30.2013C4.07523 30.2039 4.75218 30.2398 5.40008 30.4521C5.74897 30.558 6.11723 30.7024 6.49756 30.8939C6.64998 30.9706 6.72623 31.0089 6.78375 31.0231C6.95302 31.065 7.09924 31.0327 7.23716 30.9235C7.28403 30.8863 7.33282 30.8262 7.43038 30.7057C8.54651 29.3284 9.89621 27.8099 11.3747 26.4753C12.8072 25.182 14.6106 23.8307 16.6466 23.0883C18.9785 22.2383 21.5382 23.495 22.3642 25.8954C23.1899 28.2957 21.9691 30.9309 19.6373 31.781C19.1445 31.9608 18.3397 32.4531 17.2814 33.4085C16.27 34.3216 15.2484 35.4544 14.3094 36.613C13.8911 37.1291 13.5084 37.654 13.1626 38.1501C12.662 38.8683 12.4117 39.2274 12.5563 39.5258C12.701 39.8244 13.1286 39.8346 13.9839 39.8547C15.2213 39.884 16.589 39.884 18.0944 39.884H28.8525C31.2236 39.884 33.1788 39.8842 34.7261 39.6704C36.3508 39.4462 37.7856 38.957 38.9344 37.7772C40.0832 36.5974 40.5593 35.1239 40.7777 33.4555C40.9859 31.8662 40.9857 29.8582 40.9857 27.4231V23.573C40.9857 21.1379 40.9859 19.13 40.7777 17.5407C40.5593 15.8722 40.0832 14.3987 38.9344 13.2189C37.7856 12.039 36.3508 11.55 34.7261 11.3256C34.4522 11.2878 34.3151 11.2689 34.2218 11.2125C34.1279 11.1558 34.0666 11.0893 34.0165 10.9896C33.9668 10.8907 33.9555 10.747 33.933 10.4595ZM25.2264 7.51557C26.9675 7.51557 27.4944 7.53103 27.8836 7.63813C29.0921 7.97069 30.0361 8.9401 30.3598 10.1812C30.4285 10.4441 30.4627 10.5755 30.4125 10.7325C30.379 10.8368 30.2857 10.9619 30.1966 11.0221C30.0621 11.1127 29.8906 11.1126 29.5475 11.1123L28.8518 11.1121H7.7169C6.74987 11.1121 5.96594 10.307 5.96594 9.31383C5.96594 8.32067 6.74987 7.51557 7.7169 7.51557H25.2264ZM31.5794 21.9017C33.5585 21.9017 35.1628 23.5533 35.1628 25.5904C35.1628 27.6277 33.5585 29.2791 31.5794 29.2791C29.6004 29.2791 27.9961 27.6277 27.9961 25.5904C27.9961 23.5533 29.6004 21.9017 31.5794 21.9017Z" fill="#3A643C"/>
<path d="M19.8295 26.8199C20.1598 27.7801 19.6714 28.8342 18.7387 29.1743C17.7827 29.5228 16.6782 30.2733 15.5081 31.3296C14.3566 32.3691 13.2365 33.6177 12.2444 34.842C11.2556 36.062 10.4158 37.2308 9.82265 38.0958C9.52672 38.5274 9.29381 38.881 9.13619 39.1246L8.90292 39.4909C8.55661 40.0518 7.94375 40.3778 7.299 40.3439C6.65413 40.3098 6.07689 39.9212 5.7881 39.3267C4.99855 37.7011 4.29025 37.0539 3.93325 36.8088C3.78217 36.7052 3.6801 36.6637 3.63956 36.6495C2.72869 36.5624 2.01562 35.7736 2.01562 34.8132C2.01562 33.7946 2.81779 32.9688 3.80729 32.9688C3.95493 32.9703 4.32163 32.998 4.60745 33.0974C4.97988 33.207 5.42929 33.4023 5.92092 33.7396C6.41234 34.0769 6.92771 34.543 7.44507 35.181C8.00977 34.3864 8.70571 33.4502 9.49277 32.479C10.5558 31.1673 11.807 29.7645 13.1454 28.5562C14.4652 27.3647 15.9692 26.2707 17.5425 25.6971C18.4753 25.3572 19.4991 25.8598 19.8295 26.8199Z" fill="#3A643C"/>
</svg>
