<svg width="84" height="84" viewBox="0 0 84 84" fill="none" xmlns="http://www.w3.org/2000/svg">
  <!-- Background Circle -->
  <circle cx="42" cy="42" r="42" fill="#DBDCC4"/>

  <!-- Centered Icon -->
  <g transform="translate(23,23)">
    <rect width="35" height="29" fill="none"/>
    <path fill-rule="evenodd" clip-rule="evenodd" d="M12.2197 3.98216C12.6286 2.58692 13.9366 1.625 15.4248 1.625H22.9105C24.3987 1.625 25.7067 2.58694 26.1155 3.98216L27.4368 8.49108L24.2318 9.38392L22.9105 4.875H15.4248L14.1035 9.38392L10.8984 8.49108L12.2197 3.98216Z" fill="#3A643C"/>
    <path d="M6.66536 7.71875C4.13406 7.71875 2.08203 9.71948 2.08203 12.1875V30.875C2.08203 33.3431 4.13406 35.3438 6.66536 35.3438H20.4249C18.8557 33.4583 17.9154 31.0549 17.9154 28.4375C17.9154 22.3797 22.9522 17.4688 29.1654 17.4688C31.8499 17.4688 34.3149 18.3856 36.2487 19.9155V12.1875C36.2487 9.71948 34.1967 7.71875 31.6654 7.71875H6.66536Z" fill="#3A643C"/>
    <path fill-rule="evenodd" clip-rule="evenodd" d="M29.168 19.9062C24.3355 19.9062 20.418 23.7258 20.418 28.4375C20.418 33.1492 24.3355 36.9688 29.168 36.9688C34.0005 36.9688 37.918 33.1492 37.918 28.4375C37.918 23.7258 34.0005 19.9062 29.168 19.9062ZM30.418 26C30.418 25.3269 29.8583 24.7812 29.168 24.7812C28.4776 24.7812 27.918 25.3269 27.918 26V29.25C27.918 29.7117 28.1855 30.1337 28.609 30.34L30.2756 31.1525C30.8931 31.4537 31.644 31.2096 31.9526 30.6075C32.2615 30.0055 32.0111 29.2734 31.3936 28.9725L30.418 28.4968V26Z" fill="#3A643C"/>
  </g>
</svg>